Motion_pl11
version=1
nRows=5
nColumns=43
inDegrees=yes
endheader
time	pelvis_tilt	pelvis_list	pelvis_rotation	pelvis_tx	pelvis_ty	pelvis_tz	hip_flexion_r	hip_adduction_r	hip_rotation_r	knee_angle_r	ankle_angle_r	subtalar_angle_r	mtp_angle_r	hip_flexion_l	hip_adduction_l	hip_rotation_l	knee_angle_l	ankle_angle_l	subtalar_angle_l	mtp_angle_l	lumbar_extension	lumbar_bending	lumbar_rotation	neck_flexion	neck_lateral_bending	neck_rotation	arm_flex_r	arm_add_r	arm_rot_r	elbow_flex_r	pro_sup_r	wrist_flex_r	wrist_dev_r	hand_finger_flex_r	arm_flex_l	arm_add_l	arm_rot_l	elbow_flex_l	pro_sup_l	wrist_flex_l	wrist_dev_l	hand_finger_flex_l
      1.31250000	     -5.18878484	      8.99568607	     96.47883557	     -0.01286174	      0.49123549	      0.36961152	     79.90049983	     -7.31907973	      3.90038793	   -134.41069416	     12.72787716	     -1.38341002	     23.40337082	     74.83133912	      1.37280533	     -7.45599772	   -127.09048730	     20.95347875	    -13.89926256	     29.50657241	    -68.01891745	      0.52876532	     -3.45742871	     13.12027659	      1.33528311	     -7.24331317	     92.50877241	    -22.37597911	     25.60871507	     58.23242081	     94.92312342	    -33.34167173	     -7.66543411	     25.88543175	     92.12614548	    -22.90569189	     30.86600481	     76.43937604	    132.30010487	    -19.38162789	     12.05667156	     90.00021046
      1.31500000	     -5.18371217	      8.69159512	     96.46004942	     -0.01291122	      0.49101237	      0.36923516	     80.19575855	     -7.30272087	      3.97930363	   -134.37972068	     12.76706034	     -1.33044588	     23.42850188	     75.10411352	      1.38253573	     -7.56801498	   -127.03799860	     20.98354832	    -13.99678028	     29.44226213	    -68.06665389	      0.56354598	     -3.36557286	     13.28260626	      1.26753002	     -7.22491889	     93.28457221	    -21.89006908	     25.58100675	     58.20364546	     94.89309631	    -33.32357496	     -7.74472587	     25.78015206	     92.83045525	    -22.31084360	     31.01577826	     76.50136683	    132.33531954	    -19.40877095	     12.07621554	     90.00021046
      1.31750000	     -5.16613934	      8.32662234	     96.41837909	     -0.01286316	      0.49059772	      0.36888457	     80.59093223	     -7.25458895	      4.05359081	   -134.36602623	     12.78671380	     -1.23243605	     23.45832811	     75.47512544	      1.36293799	     -7.67105000	   -127.01902252	     20.98555606	    -14.15784055	     29.35310082	    -68.04606713	      0.56824745	     -3.27791899	     13.52238732	      1.19766022	     -7.26176194	     94.06956708	    -21.48777505	     25.72381100	     58.16983514	     94.86911961	    -33.23397108	     -7.87075781	     25.67048718	     93.61942406	    -21.84046961	     31.37120325	     76.57801891	    132.40878745	    -19.38674548	     12.08349752	     90.00021046
      1.32000000	     -5.15585492	      7.76585817	     96.31040499	     -0.01262923	      0.48954426	      0.36839595	     81.28011556	     -7.11139609	      4.21226042	   -134.43058009	     12.74822405	     -0.95160411	     23.54330056	     76.13831315	      1.26294971	     -7.82754358	   -127.09928984	     20.74137335	    -14.67806218	     29.02203225	    -67.78365770	      0.46614326	     -3.24149234	     13.69054864	      1.22160666	     -7.41520915	     94.80866879	    -21.32455784	     26.26653262	     58.26203004	     94.67648521	    -33.00185788	     -8.30465108	     25.30950525	     94.45479082	    -21.66672275	     32.15305602	     76.85108716	    132.49087189	    -19.30561537	     12.23827098	     90.00021046
      1.32250000	     -5.14967541	      7.43748548	     96.27528926	     -0.01263614	      0.48963109	      0.36807766	     81.56195305	     -7.09817164	      4.25078188	   -134.34449838	     12.78029606	     -0.90900119	     23.56707097	     76.40931733	      1.27738752	     -7.93084022	   -126.99469331	     20.72461121	    -14.78201836	     28.94942839	    -67.80833452	      0.47196885	     -3.14532578	     13.81702969	      1.17660159	     -7.40992134	     95.48983772	    -20.91358361	     26.28615243	     58.23737486	     94.57851408	    -32.97276407	     -8.37476031	     25.18972389	     95.07548532	    -21.10243272	     32.25906805	     76.89926452	    132.49061363	    -19.30715263	     12.26617845	     90.00021046
